<svg viewBox="0 0 2000 1000" xmlns="http://www.w3.org/2000/svg">
  <path d="M1250 150 a20 20 0 1 1 0.1 0 Z M450 300 a30 30 0 1 1 0.1 0 Z M1500 450 a25 25 0 1 1 0.1 0 Z" fill="rgba(255,255,255,0.1)"/>
  <path d="M164.2 142.1c-.8.1-1.3.4-1.7.9-.5.6-.7 1.5-.7 2.6 0 1.1.2 2 .7 2.6.4.5 1 .9 1.7 1 .8.1 1.3-.2 1.8-.7.5-.6.8-1.5.8-2.6 0-1.2-.3-2.1-.8-2.7-.5-.4-1.1-.7-1.8-.6zm3.3 22.1c-1.3.1-2.4-.4-3.2-1.2-.8-.8-1.1-2-1.1-3.6 0-1.6.3-2.7 1.1-3.6.8-.8 1.9-1.2 3.2-1.2 1.3 0 2.4.4 3.2 1.2.8.8 1.1 2 1.1 3.6 0 1.6-.3 2.7-1.1 3.6-.8.8-1.9 1.2-3.2 1.2z" fill="rgba(255,255,255,0.05)"/>
  <rect width="2000" height="1000" fill="transparent"/>
  <!-- Simplified World Map Paths -->
  <path fill="rgba(255,255,255,0.15)" d="M328.4,249.2c-5.8,1.2-11.3,3.4-16,6.4c-4.7,3-8.8,6.8-12.3,11.2c-3.1,4-5.6,8.5-7.4,13.2c-1.8,4.7-3,9.7-3.6,14.8c-0.3,2.4-0.4,4.9-0.4,7.3c0,4.8,0.5,9.6,1.4,14.3c1.9,9.4,5.9,18.1,11.5,25.6c4.2,5.6,9.3,10.6,15.1,14.7c2.9,2.1,6,3.9,9.2,5.4s6.6,2.7,10,3.6c6.9,1.8,14.1,2.5,21.2,2h4.8c10.3,0,20.4-2.5,29.3-7.2l1.6-0.8c5.4-3.1,10.1-7.1,14.1-11.8l0.9-1.1c5.2-6.5,8.8-14,10.7-22c1-4.2,1.5-8.5,1.5-12.8v-2.4c0-6-1-12-3.1-17.7c-1.1-3-2.6-5.8-4.3-8.5c-1.8-2.7-3.8-5.3-6-7.6c-4.4-4.6-9.6-8.5-15.4-11.4c-5.8-2.9-12.2-4.9-18.7-5.9c-3.3-0.5-6.6-0.8-10-0.8h-4.8C346.5,248.1,337.3,248.5,328.4,249.2z"/>
  <path fill="rgba(255,255,255,0.15)" d="M1024,150 a50,50 0 0,1 100,0 a50,50 0 0,1 -100,0 z M1050,400 a150,150 0 0,1 300,0 a150,150 0 0,1 -300,0 z M1300,200 a80,80 0 0,1 160,0 a80,80 0 0,1 -160,0 z" />
  <path fill="rgba(255,255,255,0.1)" d="M100,100 L1900,100 L1900,900 L100,900 Z" opacity="0.05"/>
  <!-- More detailed mock landmasses -->
  <path fill="rgba(255,255,255,0.15)" d="M400,200 q50,10 80,60 t-20,100 t-80,-20 t20,-140 Z M1200,300 q100,20 120,100 t-80,120 t-100,-40 t60,-180 Z M800,600 q120,0 100,100 t-150,50 t-50,-100 t100,-50 Z"/>
</svg>
